<svg id="visual" viewBox="0 0 960 540" width="960" height="540" xmlns="http://www.w3.org/2000/svg" xmlns:xlink="http://www.w3.org/1999/xlink" version="1.1"><rect x="0" y="0" width="960" height="540" fill="#171717"></rect><defs><linearGradient id="grad1_0" x1="43.8%" y1="0%" x2="100%" y2="100%"><stop offset="14.444444444444446%" stop-color="#171717" stop-opacity="1"></stop><stop offset="85.55555555555554%" stop-color="#171717" stop-opacity="1"></stop></linearGradient></defs><defs><linearGradient id="grad2_0" x1="0%" y1="0%" x2="56.3%" y2="100%"><stop offset="14.444444444444446%" stop-color="#171717" stop-opacity="1"></stop><stop offset="85.55555555555554%" stop-color="#171717" stop-opacity="1"></stop></linearGradient></defs><g transform="translate(960, 0)"><path d="M0 486C-71.5 483.9 -143.1 481.9 -182.5 440.7C-222 399.5 -229.4 319.2 -275.8 275.8C-322.1 232.3 -407.5 225.8 -449 186C-490.5 146.2 -488.3 73.1 -486 0L0 0Z" fill="#3ce3fa"></path></g><g transform="translate(0, 540)"><path d="M0 -486C68.7 -481.1 137.4 -476.2 182.5 -440.7C227.7 -405.2 249.2 -339 295.6 -295.6C341.9 -252.1 413.1 -231.5 449 -186C484.9 -140.5 485.4 -70.3 486 0L0 0Z" fill="#3ce3fa"></path></g></svg>